PathFileType	4	(X/Y/Z)	C:/Users/beibeiliu/ov580/test_trc/User2\sequence.15_training_dense_right.trc
DataRate	CameraRate	NumFrames	NumMarkers	Units	OrigDataRate	OrigDataStartFrame	OrigNumFrames
120	120	8	19	mm	120	1	86
Frame#	Time	ThumbCMC			ThumbMCP			ThumbIP			ThumbTip			IndexMCP			IndexPIP			IndexTip			MiddleMCP			MiddlePIP			MiddleTip			RingMCP			RingPIP			RingTip			PinkyMCP			PinkyPIP			PinkyTip			BackHand1			BackHand2			BackHand3	
		X0	Y0	Z0	X1	Y1	Z1	X2	Y2	Z2	X3	Y3	Z3	X4	Y4	Z4	X5	Y5	Z5	X6	Y6	Z6	X7	Y7	Z7	X8	Y8	Z8	X9	Y9	Z9	X10	Y10	Z10	X11	Y11	Z11	X12	Y12	Z12	X13	Y13	Z13	X14	Y14	Z14	X15	Y15	Z15	X16	Y16	Z16	X17	Y17	Z17	X18	Y18	Z18	
0	0	144.113	46.5958	-45.9834	110.933	48.376	-77.3019	89.7479	30.0476	-102.975	77.3514	12.622	-116.884	181.354	18.2848	-115.134	183.022	17.412	-145.675	187.769	17.7338	-167.984	175.263	-12.7059	-116.081	177.707	-16.023	-146.287	180.252	-27.5391	-174.817	148.834	-27.0408	-113.303	138.91	-31.2188	-138.855	129.649	-37.0252	-165.045	118.797	-25.8575	-96.0477	95.0795	-1.66583	-95.0938	100.15	15.8043	-69.5231	162.357	-19.4408	-53.9752	164.906	-12.4491	-18.6556	177.31	16.1697	-41.3428	
1	0.00833333	138.039	45.9699	-48.3896	110.918	36.2544	-73.8032	99.5792	13.6863	-105.317	91.8256	-4.05253	-121.346	184.896	39.735	-111.421	189.876	44.8105	-140.945	194.605	42.7448	-167.628	191.344	12.8802	-114.228	197.765	10.131	-148.715	206.501	3.23911	-175.099	176.716	-11.2601	-116.421	171.556	-22.417	-137.743	166.471	-22.8637	-168.863	147.121	-28.1666	-98.1617	114.452	-16.4166	-101.904	111.071	5.41684	-78.3689	180.52	-6.88584	-53.9554	178.672	-2.77337	-18.9722	181.693	30.8631	-41.5337	
2	0.0166667	130.508	45.0211	-42.4621	113.919	26.0938	-76.6365	110.928	4.58773	-108.41	118.159	-14.7908	-123.337	182.949	59.3577	-106.196	185.716	68.9185	-130.896	193.513	70.4438	-157.503	201.343	38.1968	-113.371	209.525	41.0336	-142.103	222.553	39.6274	-170.06	197.411	7.57632	-111.287	197.257	3.92863	-135.779	196.096	-0.49139	-166.096	173.356	-19.6819	-100.921	141.757	-22.3806	-107.531	122.084	-7.22505	-90.7903	193.289	9.54758	-52.222	189.955	8.81986	-18.747	179.459	43.014	-35.7778	
3	0.025	127.247	41.2458	-44.9376	116.008	20.7982	-78.0753	127.496	1.50703	-111.889	141.274	-14.6591	-128.16	173.081	77.0775	-98.2977	176.815	89.6822	-127.731	185.439	95.1306	-150.864	202.48	60.3711	-103.885	212.206	70.0425	-134.317	223.928	75.7325	-159.255	207.403	34.7711	-107.487	212.959	31.3243	-134.321	213.392	30.9227	-161.864	193.709	-2.09013	-98.8547	168.048	-14.1073	-112.225	136.305	-10.2756	-97.5249	197.479	31.3545	-47.9378	190.153	23.061	-13.6692	170.977	56.7452	-35.3593	
4	0.0333333	124.573	40.2025	-45.2094	121.687	19.0236	-78.6684	135.957	4.85807	-112.136	157.277	-6.10567	-127.699	164.667	89.5057	-95.8773	163.304	102.627	-118.054	171.023	111.241	-143.385	189.804	80.8175	-94.2301	200.3	95.4911	-126.365	209.868	106.93	-148.226	203.932	54.1825	-98.1447	210.921	57.9586	-129.576	216.502	60.1536	-157.005	203.594	16.0514	-94.0659	178.638	-0.913931	-115.343	150.5	-6.46807	-101.86	194.577	43.8863	-41.4139	192.335	34.1339	-9.83724	166.651	59.5036	-27.7424	
5	0.0416667	120.967	39.1379	-43.7423	120.738	18.6879	-75.6027	132.593	5.26715	-105.763	154.419	-2.56774	-123.164	150.786	92.2944	-93.0418	154.759	104.346	-119.259	152.211	118.93	-143.322	181.761	86.276	-92.7501	189.146	101.396	-120.815	194.084	115.975	-144.295	196.283	64.1537	-99.7484	204.901	65.8167	-124.348	204.675	70.7722	-151.31	202.129	24.4588	-96.0565	182.56	9.33472	-114.983	151.952	-5.01749	-100.789	193.091	48.6085	-42.4947	185.962	41.5577	-11.4323	160.486	64.4862	-29.3945	
6	0.05	114.214	36.0375	-39.4683	107.692	15.0127	-73.1658	121.488	0.523115	-107.183	143.752	-8.73587	-122.457	140.056	87.4909	-94.717	136.285	100.067	-120.996	141.809	108.255	-145.633	167.443	84.9923	-95.126	172.81	97.648	-123.49	179.583	111.798	-149.096	188.394	59.497	-100.858	192.714	61.1786	-126.147	193.926	64.9197	-152.618	191.049	25.5688	-92.9386	172.129	2.29121	-112.195	145.423	-6.33659	-91.8921	181.189	49.8547	-39.7876	176.026	42.4	-9.2548	149.494	63.9788	-28.8677	
7	0.0583333	100.11	30.3232	-33.1392	95.3038	7.06817	-68.2887	107.499	-9.97044	-99.7658	131.545	-18.8316	-116.755	123.659	78.5879	-97.4492	122.671	85.7451	-127.197	121.942	94.5591	-152.639	154.479	73.9459	-101.306	156.706	84.9493	-130.393	165.151	97.455	-159.42	173.903	47.6662	-104.24	177.721	47.3955	-130.272	174.469	50.8226	-155.553	177.023	16.0583	-91.6588	156.883	-5.78615	-107.859	133.302	-15.0177	-82.4377	169.709	47.051	-45.3195	166.371	40.151	-8.08987	135.912	60.7759	-27.2474	
